<?xml version="1.0" standalone="no"?>
<!DOCTYPE svg PUBLIC "-//W3C//DTD SVG 20010904//EN"
 "http://www.w3.org/TR/2001/REC-SVG-20010904/DTD/svg10.dtd">
<svg version="1.0" xmlns="http://www.w3.org/2000/svg"
 width="2000.000000pt" height="2000.000000pt" viewBox="0 0 2000.000000 2000.000000"
 preserveAspectRatio="xMidYMid meet">
<metadata>
Created by potrace 1.14, written by Peter Selinger 2001-2017
</metadata>
<g transform="translate(0.000000,2000.000000) scale(0.100000,-0.100000)"
fill="#000000" stroke="none">
<path d="M9415 17940 c-654 -30 -1204 -117 -1800 -285 -580 -163 -1006 -317
-1346 -485 -220 -108 -270 -144 -327 -233 -79 -122 -117 -256 -161 -577 -86
-621 -143 -840 -311 -1190 -101 -210 -121 -286 -101 -379 15 -69 15 -67 -18
-81 -43 -17 -134 -117 -166 -180 -15 -30 -59 -135 -96 -233 -86 -225 -187
-421 -310 -607 -126 -189 -224 -305 -349 -414 -142 -123 -188 -191 -189 -284
-2 -86 50 -140 159 -167 60 -15 103 -17 278 -12 131 3 242 11 302 22 101 18
330 85 441 128 l67 25 22 -121 c25 -136 81 -371 103 -432 l15 -41 -37 -31
c-93 -78 -200 -251 -266 -428 -131 -353 -144 -648 -46 -1051 69 -280 183 -502
356 -692 62 -67 66 -74 57 -100 -49 -129 -229 -494 -291 -587 -40 -60 -87
-137 -103 -169 -121 -241 -208 -795 -195 -1241 10 -333 58 -600 172 -953 106
-329 219 -544 399 -759 88 -106 281 -283 307 -283 13 0 11 37 -1 45 -21 13
-159 177 -195 231 -71 106 -127 308 -140 504 -8 109 3 242 46 558 33 249 54
323 144 507 53 108 164 295 175 295 3 0 18 -37 33 -82 15 -46 59 -148 98 -228
68 -141 198 -370 210 -370 3 0 16 33 28 72 20 61 82 196 68 148 -24 -82 -32
-155 -32 -290 0 -130 4 -168 23 -239 53 -195 123 -306 306 -486 79 -77 155
-161 170 -186 15 -26 44 -95 65 -153 21 -58 46 -117 55 -131 38 -57 141 -105
354 -165 107 -30 192 -113 192 -187 0 -35 34 -110 63 -142 34 -36 123 -90 225
-136 83 -38 90 -43 66 -49 -31 -8 -159 10 -217 30 -79 28 -104 56 -177 207
-37 78 -79 152 -92 164 -25 23 -61 34 -187 58 -78 15 -154 45 -241 94 -60 35
-95 85 -139 202 -48 123 -82 169 -162 219 l-49 30 24 -47 c13 -27 34 -97 46
-158 49 -247 130 -328 370 -370 195 -34 263 -79 305 -203 14 -42 36 -96 49
-118 l23 -41 -60 -17 c-97 -27 -249 -153 -291 -240 -48 -102 -35 -267 25 -322
36 -32 62 -37 109 -18 23 9 45 13 49 8 4 -5 28 -38 53 -74 153 -218 344 -382
586 -503 90 -45 102 -54 97 -72 -41 -128 -41 -159 4 -240 15 -27 26 -56 23
-63 -8 -25 20 -71 54 -87 23 -11 94 -21 203 -30 211 -18 291 -30 364 -52 57
-18 57 -18 42 -40 -23 -32 -83 -47 -112 -27 -13 8 -22 23 -21 32 2 10 -3 17
-12 17 -9 0 -14 -7 -12 -20 6 -31 21 -44 58 -51 42 -8 88 10 114 43 l19 25 34
-21 c32 -20 35 -25 40 -86 5 -70 25 -105 59 -105 11 0 31 -9 45 -20 14 -11 33
-20 42 -20 11 1 10 4 -7 13 -27 16 -18 29 14 21 13 -4 24 -2 24 4 0 11 136 38
265 52 273 30 614 -6 873 -92 118 -39 123 -42 158 -89 20 -27 45 -56 57 -64
27 -19 94 -19 140 0 46 19 97 19 123 1 18 -13 19 -27 18 -195 0 -100 3 -181 8
-181 13 0 35 42 78 150 50 127 86 192 158 289 73 99 167 189 263 253 43 29 78
56 79 59 0 10 -65 34 -162 59 l-87 23 -50 -32 c-27 -18 -55 -39 -62 -48 -11
-13 -15 -2 -26 68 -14 99 -14 99 80 120 72 16 395 18 708 5 l197 -9 16 26 c10
14 20 52 23 84 5 51 11 62 44 93 49 46 57 81 34 140 -41 106 -31 150 65 264
57 69 76 133 67 232 -8 80 -31 138 -116 292 -97 175 -106 215 -95 417 5 88 9
286 8 441 l0 281 56 -44 c64 -50 123 -66 134 -38 3 10 1 56 -5 104 -26 191 4
523 65 732 20 69 78 209 86 209 3 0 33 -23 65 -51 286 -243 608 -356 1145
-403 l172 -16 87 33 c109 41 255 133 341 213 80 76 168 196 226 310 41 79 44
90 44 163 l0 78 57 6 c32 3 59 4 61 2 12 -11 13 -150 3 -192 -18 -69 -75 -177
-139 -263 -58 -78 -201 -227 -262 -272 -31 -24 -32 -26 -10 -21 50 12 183 73
239 109 155 100 303 460 262 636 -7 30 -6 37 8 41 9 3 23 8 32 12 14 5 21 -4
34 -46 22 -67 16 -199 -14 -283 -27 -77 -26 -80 8 -26 57 92 74 162 77 315 l2
140 40 35 c21 19 62 44 90 54 107 41 170 107 193 200 13 53 6 139 -14 189 -13
31 -11 36 40 127 29 52 60 112 69 132 l17 37 56 -28 c173 -87 434 -126 566
-86 l48 14 31 -31 c42 -42 91 -71 159 -96 31 -12 57 -20 57 -18 0 1 -41 27
-91 57 -127 75 -136 86 -300 378 -129 229 -205 289 -799 625 -227 129 -358
219 -655 452 -226 177 -311 222 -355 191 -13 -9 -31 -29 -41 -44 -29 -44 -22
-19 15 55 43 85 113 178 178 237 l51 46 -6 147 c-7 176 -33 336 -81 493 -31
102 -241 689 -279 781 -15 35 -14 38 30 129 25 52 53 117 63 144 19 54 16 53
96 40 55 -10 84 17 84 75 0 46 -18 68 -78 96 l-41 19 0 125 c1 146 -17 245
-61 338 -16 35 -30 66 -30 68 0 2 9 4 21 4 11 0 34 14 51 30 36 37 33 69 -12
115 -27 26 -38 30 -109 35 l-79 5 -80 100 c-92 116 -229 274 -312 360 l-58 61
-44 283 -45 284 136 -6 c75 -4 194 -11 264 -17 196 -14 449 15 722 85 219 56
325 103 383 169 46 52 50 94 18 160 -47 96 -172 193 -461 356 -413 233 -530
307 -707 448 -90 72 -236 221 -316 323 -72 92 -171 172 -286 230 -81 42 -84
45 -90 84 -11 70 -36 131 -88 217 -114 189 -138 255 -289 817 -104 387 -127
461 -176 554 -45 85 -137 178 -214 217 -191 97 -621 169 -1259 211 -210 14
-1041 19 -1275 9z m739 -320 c242 -62 469 -291 531 -535 42 -166 26 -307 -51
-465 -38 -76 -62 -110 -123 -171 -113 -112 -222 -158 -265 -110 -11 12 -22 55
-31 121 -12 85 -20 109 -45 143 -33 45 -28 57 26 57 49 0 116 28 151 62 52 50
77 120 77 213 0 89 -19 145 -70 206 -25 28 -29 40 -24 69 6 41 -5 129 -19 143
-16 16 -67 -3 -112 -41 l-43 -37 -131 -1 c-95 -1 -143 -5 -177 -18 -46 -16
-49 -16 -90 5 -24 12 -70 24 -104 27 -58 4 -61 3 -67 -19 -10 -36 -8 -94 3
-124 8 -22 6 -32 -11 -56 -30 -43 -45 -145 -30 -216 17 -88 46 -136 106 -183
66 -51 113 -69 183 -70 28 0 52 -3 52 -6 0 -12 -43 -79 -58 -91 -27 -22 -82
-14 -146 19 -33 17 -72 37 -86 44 -14 7 -38 16 -55 19 -29 7 -30 7 -8 -9 12
-9 31 -33 44 -53 64 -108 177 -172 253 -143 l26 10 0 -80 c0 -95 5 -92 -124
-55 -123 36 -195 75 -277 152 -122 116 -192 292 -192 488 0 115 18 196 68 300
104 218 296 369 526 414 81 16 211 12 293 -9z m2575 -3122 c13 -24 16 -36 8
-28 -8 8 -29 40 -46 70 -23 40 -25 48 -9 28 13 -15 34 -47 47 -70z m119 0 c32
-91 40 -128 22 -98 -8 14 -70 179 -70 187 0 2 4 3 8 3 4 0 22 -42 40 -92z
m-1088 -3 c-22 -23 -25 -24 -41 -9 -25 22 -15 34 28 34 l36 0 -23 -25z m-82
-23 c33 -27 33 -28 14 -45 -15 -14 -25 -16 -46 -7 -15 5 -41 10 -57 10 -32 0
-89 25 -89 39 0 8 78 27 120 29 14 1 40 -11 58 -26z m1298 -499 c68 -172 59
-176 -40 -18 -39 62 -66 116 -66 132 0 26 1 26 15 7 15 -17 15 -16 2 11 -8 17
-17 53 -21 80 l-6 50 36 -75 c19 -41 55 -125 80 -187z m-2636 242 c0 -2 -9
-27 -20 -54 -39 -99 -53 -204 -47 -355 5 -153 28 -262 85 -409 25 -64 27 -77
14 -72 -9 4 -40 9 -67 12 -44 5 -60 1 -124 -31 -40 -21 -75 -36 -76 -34 -2 2
12 46 32 98 108 288 130 548 63 761 l-18 59 37 6 c20 3 52 10 71 14 46 10 50
11 50 5z m720 -105 c29 -9 47 -29 108 -119 40 -60 104 -146 141 -192 162 -201
455 -615 615 -872 77 -122 85 -140 75 -160 -6 -12 -36 -66 -66 -120 l-55 -97
-91 122 c-50 68 -114 155 -142 193 -28 39 -109 156 -180 260 -71 105 -202 297
-291 427 -170 248 -351 526 -356 548 -2 7 8 17 22 21 32 11 174 3 220 -11z
m-195 -369 c312 -464 541 -781 818 -1129 106 -133 128 -167 121 -182 -8 -17
-20 -6 -90 78 -159 191 -541 718 -785 1083 -192 288 -269 411 -262 422 7 12
-2 25 198 -272z m530 201 c12 -8 146 -187 260 -347 104 -145 334 -461 402
-552 l54 -71 -16 -32 -16 -31 -36 43 c-64 77 -147 190 -263 358 -63 91 -198
280 -300 420 -102 140 -190 261 -194 268 -7 11 69 -28 109 -56z m-3303 4 c64
-30 71 -38 234 -241 306 -384 483 -595 951 -1135 l32 -37 -51 -79 c-65 -103
-66 -103 -86 -78 -9 12 -94 108 -187 215 -410 466 -670 794 -971 1224 l-113
160 32 6 c48 8 85 0 159 -35z m128 -566 c322 -406 482 -597 766 -916 138 -155
160 -185 148 -195 -9 -7 -18 -8 -23 -3 -5 5 -109 124 -231 264 -122 140 -259
293 -304 340 -95 100 -210 244 -552 694 -184 241 -249 334 -242 343 8 10 25
-6 67 -60 32 -39 199 -250 371 -467z m291 374 c40 -14 64 -41 274 -306 195
-245 305 -380 582 -715 30 -37 33 -44 22 -64 -12 -23 -13 -22 -76 46 -125 136
-368 435 -806 993 -27 34 -47 62 -45 62 3 0 24 -7 49 -16z m4461 -211 c212
-171 362 -341 444 -505 70 -140 155 -364 178 -473 l6 -30 -14 25 c-8 14 -35
86 -61 160 -118 339 -251 531 -530 763 -110 92 -142 127 -117 127 6 0 48 -30
94 -67z m24 -115 c213 -218 343 -397 445 -613 50 -107 113 -290 105 -309 -2
-6 -5 -4 -5 4 -2 31 -90 230 -141 321 -76 134 -226 359 -307 459 -37 46 -110
129 -162 182 -51 54 -89 98 -84 98 6 0 73 -64 149 -142z m-219 -561 c146 -227
190 -362 180 -550 -5 -110 -27 -181 -102 -332 -70 -140 -147 -235 -361 -445
-181 -177 -320 -288 -486 -387 -102 -60 -431 -237 -559 -300 -138 -67 -424
-101 -689 -82 -316 23 -444 5 -712 -100 -70 -28 -154 -58 -185 -67 -32 -9 -92
-32 -134 -50 -86 -38 -210 -69 -314 -78 -190 -17 -672 33 -965 100 -681 158
-1265 507 -1435 859 -51 104 -68 196 -68 360 -1 168 16 248 93 439 28 71 53
147 56 170 7 49 -24 145 -104 321 -27 61 -61 142 -75 181 l-26 72 68 105 c38
57 73 107 78 110 11 7 290 37 337 37 29 0 35 -7 81 -92 74 -138 233 -373 344
-511 152 -188 304 -328 551 -508 246 -178 299 -212 390 -248 62 -24 75 -25
250 -26 178 0 187 1 240 26 107 50 222 178 382 424 99 152 156 251 227 393 57
113 54 110 211 191 124 64 216 92 306 92 151 1 225 -37 327 -170 113 -146 300
-345 360 -382 28 -17 84 -57 122 -89 39 -31 107 -83 152 -115 l82 -59 -16 -27
c-77 -130 -298 -315 -523 -436 -185 -100 -429 -193 -505 -193 -36 0 -82 44
-228 222 -173 210 -296 274 -414 217 -53 -25 -110 -90 -123 -139 -7 -27 -6
-49 4 -83 8 -26 12 -47 10 -47 -11 0 -125 63 -175 97 l-57 38 40 25 c60 38 22
36 -63 -3 -81 -37 -147 -93 -130 -110 7 -7 24 -1 55 21 50 36 54 37 75 18 30
-26 271 -156 363 -195 242 -104 543 -126 801 -60 402 102 723 304 895 562 33
49 50 66 61 62 51 -20 150 -36 248 -42 108 -6 114 -5 170 22 74 37 212 170
308 296 90 120 145 217 326 585 l144 290 5 -125 5 -126 102 -158z m-2340
-2239 c18 -18 50 -72 72 -120 22 -49 46 -88 54 -88 8 0 13 -9 12 -22 -1 -13
18 -65 42 -117 24 -52 40 -98 36 -102 -25 -25 -399 -149 -450 -149 -7 0 -13 8
-13 18 0 9 29 125 64 257 80 303 77 288 66 305 -7 11 0 18 33 31 23 9 44 17
48 18 3 1 19 -14 36 -31z m233 -225 c14 -10 40 -19 57 -20 49 -3 90 -32 129
-90 28 -43 40 -53 63 -53 70 0 113 -100 81 -186 -17 -45 -72 -124 -86 -124
-18 0 -7 29 24 62 27 29 41 111 28 162 -8 34 -51 63 -70 47 -11 -9 -21 0 -52
48 -40 61 -77 91 -113 91 -49 0 -8 -84 54 -111 50 -22 60 -43 56 -115 -3 -53
12 -96 45 -129 15 -15 15 -18 -7 -42 -13 -14 -18 -23 -12 -19 7 4 20 -2 29
-13 9 -10 23 -17 31 -14 21 8 69 -43 93 -99 38 -88 24 -170 -36 -217 -29 -23
-54 -14 -54 18 0 10 -7 26 -15 37 -20 26 -19 34 4 34 52 0 63 63 29 154 l-15
38 -7 -28 c-8 -32 -57 -114 -68 -114 -16 0 -18 21 -4 42 23 36 50 105 35 91
-7 -7 -27 -13 -45 -13 -27 0 -34 -5 -43 -31 -16 -47 -14 -58 19 -96 42 -48 41
-94 -3 -138 -30 -30 -88 -55 -128 -55 -28 0 -68 39 -78 77 -11 38 -4 60 29 98
10 11 23 44 29 73 20 96 51 135 123 156 31 10 43 18 43 32 0 10 4 22 10 26 5
4 -1 28 -15 58 -24 52 -31 110 -16 142 6 13 3 19 -10 24 -44 13 -84 38 -89 55
-4 11 -10 19 -15 19 -5 0 -7 -8 -4 -17 5 -15 4 -16 -5 -3 -6 8 -13 34 -17 58
-4 24 -18 57 -31 73 -28 33 -13 40 27 12z m-886 -94 c14 -11 26 -27 26 -35 0
-12 -5 -11 -26 5 -34 27 -52 26 -63 -2 -5 -13 -16 -29 -25 -36 -9 -7 -16 -28
-16 -45 -1 -30 -1 -30 -16 -11 -23 30 -12 94 21 122 33 29 65 29 99 2z m24
-113 c22 -24 46 -62 53 -84 10 -35 16 -41 48 -46 44 -7 103 -54 125 -100 9
-19 16 -59 16 -90 0 -53 1 -56 25 -56 39 0 130 -45 161 -79 25 -28 33 -31 87
-31 57 0 59 1 53 23 -9 39 25 226 47 255 5 6 24 12 41 12 l32 0 -4 -64 c-9
-132 40 -336 81 -336 13 0 62 -89 55 -100 -1 -3 5 -15 13 -28 9 -12 14 -33 11
-47 -5 -30 -22 -23 -22 9 0 19 -4 22 -24 19 -26 -5 -31 5 -51 105 -4 18 -13
32 -21 32 -8 0 -14 8 -14 18 -1 27 -16 -5 -24 -51 -6 -32 -13 -41 -43 -54 -46
-19 -103 -11 -162 22 -50 29 -58 31 -41 10 27 -33 1 -12 -34 26 -20 23 -31 39
-23 36 10 -4 13 5 13 31 -1 52 16 53 35 3 15 -42 59 -81 90 -81 9 0 22 -7 29
-15 15 -18 69 -20 76 -2 2 7 -4 30 -15 52 -11 22 -17 42 -15 44 2 3 18 -5 34
-18 32 -23 42 -14 13 11 -35 30 -85 49 -121 46 -30 -2 -38 -8 -40 -25 -5 -33
-19 -28 -41 15 -26 50 -52 73 -145 124 -86 48 -92 54 -101 111 -6 38 -66 117
-89 117 -22 1 -78 56 -104 104 -15 27 -37 56 -50 64 -23 15 -23 15 -16 -14 12
-54 43 -114 61 -121 23 -8 53 -33 53 -45 0 -21 -42 -4 -71 30 -17 20 -29 29
-25 19 3 -11 2 -16 -5 -12 -5 4 -7 16 -3 27 4 14 2 18 -5 14 -7 -5 -8 -1 -4
10 4 12 3 15 -5 10 -8 -5 -10 -2 -6 8 3 9 1 16 -6 16 -6 0 -8 5 -5 10 3 6 2
10 -2 10 -14 0 -14 83 0 92 25 16 46 7 85 -36z m913 27 c13 -16 12 -17 -3 -4
-10 7 -18 15 -18 17 0 8 8 3 21 -13z m-1216 -87 c-99 -47 -150 -88 -191 -152
-50 -78 -98 -129 -168 -179 -113 -79 -104 -65 73 114 170 173 208 202 300 236
64 24 58 15 -14 -19z m163 0 c0 -20 -7 -25 -34 -31 -61 -11 -124 -67 -241
-215 -72 -91 -110 -123 -280 -234 -213 -139 -451 -262 -583 -301 -46 -14 233
181 345 240 212 112 361 226 459 350 82 103 123 136 223 180 94 42 111 43 111
11z m123 -133 c13 -16 12 -17 -3 -4 -10 7 -18 15 -18 17 0 8 8 3 21 -13z m53
-96 c11 -69 117 -156 141 -117 14 22 41 7 107 -61 38 -39 68 -73 65 -75 -10
-10 -69 31 -94 66 -26 36 -31 38 -90 42 -46 3 -71 10 -95 28 -23 17 -29 18
-18 5 8 -10 29 -26 45 -37 17 -10 24 -18 17 -18 -7 0 -32 18 -55 41 -23 22
-36 38 -29 34 16 -8 15 4 -4 35 l-15 25 6 -25 c5 -19 4 -22 -4 -10 -6 8 -8 29
-5 45 4 22 3 26 -5 15 -8 -11 -10 -4 -8 26 1 36 3 40 18 31 9 -6 20 -29 23
-50z m261 -260 l30 -29 -31 21 c-29 19 -84 82 -84 96 0 4 12 -8 28 -26 15 -19
41 -46 57 -62z m60 -45 c-3 -3 -11 0 -18 7 -9 10 -8 11 6 5 10 -3 15 -9 12
-12z m390 -170 c8 -44 8 -44 44 -38 20 3 30 3 24 0 -7 -3 -13 -12 -13 -20 0
-8 -8 -15 -17 -15 -16 -1 -16 -2 -1 -6 23 -6 44 -71 28 -86 -9 -9 -15 -7 -26
7 -17 24 -28 16 -19 -13 4 -14 15 -21 32 -21 30 0 26 -24 -5 -28 -19 -3 -22
-10 -22 -48 0 -47 1 -48 63 -38 l37 7 -1 101 c0 55 -4 125 -8 154 -7 50 -6 52
16 52 13 0 23 -6 23 -14 0 -9 18 -16 53 -20 146 -19 257 -132 269 -276 l3 -35
-108 -3 -107 -3 -7 31 c-7 37 -64 102 -71 82 -9 -28 10 -162 26 -182 12 -14
39 -23 92 -31 139 -20 231 -78 276 -174 20 -42 24 -66 24 -145 0 -52 -5 -113
-11 -134 -22 -78 -130 -165 -261 -209 -15 -5 -18 -18 -18 -66 0 -42 -4 -60
-15 -64 -8 -4 -16 -3 -18 1 -3 4 -15 63 -27 132 -12 69 -29 140 -36 159 -8 19
-19 78 -24 130 -17 162 -40 415 -40 429 0 6 -4 12 -9 12 -6 0 -7 -16 -4 -35 5
-31 3 -35 -16 -35 -17 0 -21 -6 -21 -35 0 -20 7 -49 15 -64 8 -16 11 -32 7
-36 -4 -3 -7 -23 -7 -43 0 -35 -2 -37 -33 -40 l-34 -3 7 -62 c4 -34 8 -63 9
-64 0 -1 22 -3 48 -5 58 -5 61 -8 49 -42 -9 -22 -8 -26 7 -27 16 -1 16 -2 0
-6 -20 -5 -26 -71 -7 -90 5 -5 15 -54 21 -107 12 -95 12 -97 37 -94 19 2 27
-3 32 -22 11 -40 10 -58 -3 -57 -24 3 -113 -15 -118 -23 -3 -4 -25 -11 -50
-14 -29 -5 -40 -4 -31 2 15 10 6 92 -11 103 -5 3 -13 48 -17 100 -5 52 -21
222 -35 379 -15 157 -38 375 -52 485 -22 183 -23 201 -8 212 14 10 14 14 1 33
-13 19 -12 23 12 49 l26 29 12 -36 c6 -21 14 -57 18 -80z m-236 62 c14 -12
-19 -1 -35 12 -18 14 -18 14 6 3 14 -6 27 -13 29 -15z m94 -21 c-7 -2 -19 -2
-25 0 -7 3 -2 5 12 5 14 0 19 -2 13 -5z m-13 -128 c0 -8 -22 -24 -50 -36 -97
-42 -153 -133 -149 -247 1 -25 4 -14 10 31 12 91 39 141 97 178 46 29 89 46
97 37 2 -2 8 -36 13 -75 6 -54 5 -75 -5 -89 -7 -10 -12 -27 -12 -38 2 -19 2
-19 6 2 2 12 8 22 12 22 10 0 33 -171 25 -179 -3 -3 -14 5 -25 18 -10 13 -19
19 -19 13 0 -6 14 -22 30 -35 20 -17 30 -35 30 -54 l1 -28 15 29 c19 34 37 23
32 -20 -2 -20 -10 -30 -28 -35 -25 -6 -24 -6 5 -10 21 -3 31 -10 33 -25 2 -17
-4 -23 -29 -28 -53 -10 -86 -7 -146 15 -76 29 -143 96 -173 175 -28 75 -24
183 10 262 25 59 56 85 133 112 63 23 87 25 87 5z m-901 -291 c2 -73 -36 -188
-109 -334 -82 -164 -98 -227 -80 -315 9 -45 20 -65 52 -97 43 -43 43 -42 -14
-73 -26 -14 -28 -14 -53 18 -64 86 -83 237 -44 358 11 35 48 108 81 162 67
109 88 166 88 241 0 43 5 58 32 91 32 38 32 38 39 14 4 -13 7 -42 8 -65z
m-145 -174 c-9 -34 -35 -89 -57 -123 -82 -127 -92 -158 -92 -292 0 -134 14
-177 75 -228 30 -26 30 -26 9 -38 -44 -23 -108 57 -130 160 -21 102 17 271 80
350 27 34 50 79 107 210 23 52 27 30 8 -39z m3117 -66 c6 -8 8 -14 5 -14 -9 0
-66 29 -66 34 0 9 51 -8 61 -20z m329 -309 c54 -27 199 -65 251 -65 l36 0 -15
-54 -15 -55 -32 25 c-34 26 -109 44 -184 44 -98 0 -192 71 -230 175 -41 112
-40 113 56 30 49 -42 108 -87 133 -100z m-2339 122 c39 -46 60 -107 37 -107
-9 0 -10 -2 -1 -8 12 -8 39 -169 29 -179 -3 -4 -23 -1 -43 5 -20 6 -39 9 -41
7 -3 -2 16 -10 41 -17 60 -16 71 -38 18 -38 -50 0 -172 42 -232 80 -66 43
-126 111 -138 157 -23 92 -24 103 -4 103 18 1 132 16 213 30 78 13 83 11 121
-33z m2654 -29 c29 -13 31 -25 11 -54 -13 -19 -19 -20 -80 -11 -51 8 -71 16
-92 38 l-27 28 34 10 c38 11 117 6 154 -11z m-6206 -347 c-8 -11 -48 -59 -90
-108 -94 -109 -130 -162 -174 -254 -50 -106 -57 -154 -53 -377 5 -230 13 -262
97 -382 62 -88 102 -127 231 -219 127 -92 183 -154 230 -255 66 -143 100 -169
272 -211 138 -33 228 -64 234 -80 3 -8 -7 -45 -22 -83 l-27 -70 -36 28 c-47
37 -86 47 -200 54 -183 10 -275 83 -386 309 -70 143 -82 160 -135 196 -163
112 -301 303 -349 483 -21 78 -41 234 -41 320 0 72 22 167 60 268 30 78 40 92
124 175 73 74 259 225 275 225 2 0 -3 -9 -10 -19z m3538 3 c-3 -3 -12 -4 -19
-1 -8 3 -5 6 6 6 11 1 17 -2 13 -5z m132 -26 c-1 -17 -3 -18 -6 -6 -3 11 -17
18 -41 21 l-37 4 43 1 c38 2 42 0 41 -20z m-726 -140 c-4 -13 -6 -129 -3 -258
8 -395 4 -616 -13 -710 -53 -283 -133 -630 -144 -630 -11 0 -12 23 -8 107 2
59 9 111 15 117 5 5 10 48 10 96 0 49 10 137 25 210 42 218 49 330 36 602 -12
265 -14 411 -5 445 4 14 18 25 42 31 53 14 54 14 45 -10z m-154 -98 c-6 -48
-5 -109 1 -175 30 -287 24 -437 -26 -673 -31 -146 -31 -173 2 -212 l27 -31
-24 -50 c-29 -62 -32 -55 -48 101 -6 63 -16 133 -22 155 -13 52 -14 45 12 155
23 100 28 248 20 575 -4 175 2 211 38 223 14 5 27 9 28 8 1 -1 -2 -35 -8 -76z
m1735 -48 c84 -79 87 -244 6 -302 -38 -27 -47 -25 -52 13 -3 17 -8 39 -12 49
-5 11 -1 18 13 23 43 13 68 109 36 135 -8 7 -15 24 -15 37 0 22 -3 24 -22 18
-46 -14 -123 -22 -132 -14 -24 22 -35 7 -41 -55 -8 -72 3 -102 41 -116 13 -5
24 -14 24 -20 0 -20 -32 -23 -61 -6 -16 9 -29 13 -29 9 0 -19 32 -52 53 -55
16 -2 22 -10 22 -28 0 -19 -4 -24 -20 -22 -69 13 -110 91 -103 201 4 74 19
106 69 143 57 43 171 38 223 -10z m-2513 -382 c153 -22 367 -111 500 -207 46
-33 82 -66 85 -79 3 -12 12 -25 19 -28 23 -8 38 -85 31 -156 -14 -150 -71
-290 -157 -384 -72 -79 -146 -126 -264 -171 -142 -53 -222 -71 -374 -85 -303
-28 -456 15 -611 171 -123 123 -170 236 -170 404 0 127 9 152 91 239 95 102
190 163 330 214 225 82 366 104 520 82z m669 -799 l0 -80 -62 -78 c-92 -115
-164 -185 -261 -248 -108 -70 -272 -148 -357 -171 -86 -22 -242 -23 -292 -1
-39 16 -42 23 -52 110 l-6 47 88 0 c102 0 256 22 362 51 215 59 426 212 537
392 20 31 37 57 39 57 2 0 4 -36 4 -79z m-1604 -107 c97 -125 203 -210 318
-257 66 -26 72 -32 55 -53 -13 -15 -11 -16 11 -9 14 4 29 11 34 15 12 12 109
0 118 -14 12 -18 8 -110 -5 -126 -7 -9 -41 -38 -77 -65 -36 -27 -93 -74 -128
-103 -35 -30 -66 -52 -68 -49 -3 3 -9 31 -14 63 -11 80 -16 88 -55 107 -18 9
-63 41 -99 71 -36 31 -103 84 -148 117 -93 69 -155 125 -200 182 l-31 38 80
82 c44 45 88 95 98 110 l18 29 15 -29 c8 -15 43 -65 78 -109z m3885 -376 c-2
-136 -12 -286 -32 -487 -6 -62 -9 -159 -7 -215 4 -89 10 -114 47 -209 23 -59
60 -131 82 -160 70 -92 94 -152 98 -244 4 -110 -14 -163 -95 -265 -74 -94 -82
-114 -60 -156 40 -77 39 -162 -2 -212 -16 -19 -21 -20 -45 -9 -25 11 -26 14
-11 30 26 28 28 88 5 153 -35 100 -27 133 57 236 69 84 86 130 87 230 0 79 -2
89 -34 145 -19 33 -45 74 -58 92 -27 35 -76 166 -99 263 -21 87 -19 244 6 460
11 96 23 251 27 343 5 149 8 167 21 153 12 -12 15 -41 13 -148z m-3645 -380
c-3 -13 -11 -47 -17 -75 -9 -41 -17 -53 -31 -53 -11 0 -18 7 -18 18 0 32 28
115 42 123 22 15 31 10 24 -13z m14 -271 c0 -9 -48 -32 -55 -25 -3 2 -8 18
-11 35 -5 25 -3 32 12 35 18 4 53 -26 54 -45z m-185 -31 c28 -8 68 -21 91 -30
29 -11 51 -12 79 -6 49 11 58 4 96 -71 36 -73 80 -123 134 -154 50 -30 123
-42 153 -26 18 10 24 7 46 -22 54 -70 22 -117 -61 -92 -51 15 -96 41 -223 129
-52 36 -160 109 -240 162 -80 54 -147 99 -149 100 -5 4 9 24 17 24 4 0 30 -7
57 -14z m1892 -353 c-23 -44 -73 -112 -65 -88 5 18 83 143 86 140 2 -2 -8 -25
-21 -52z m-610 -670 c-4 -39 -24 -90 -74 -190 -58 -116 -68 -143 -68 -188 0
-45 5 -59 33 -94 l33 -41 -28 0 c-15 0 -38 -3 -49 -6 -18 -5 -26 3 -48 47 -14
29 -26 65 -26 80 0 51 40 154 96 249 31 52 58 111 61 130 5 36 49 84 66 73 5
-3 7 -30 4 -60z m-173 -78 c-4 -21 -27 -67 -52 -104 -88 -129 -110 -221 -73
-306 11 -26 21 -51 21 -55 0 -3 -16 -12 -36 -18 -35 -10 -36 -10 -49 22 -40
95 -28 167 49 291 46 73 76 138 76 161 0 12 -4 12 -27 0 -82 -42 -310 -107
-366 -105 -12 0 15 9 60 19 94 21 263 77 343 113 30 13 56 23 58 22 2 -2 0
-20 -4 -40z m-1041 -41 c14 -5 14 -10 0 -42 -21 -51 -14 -139 15 -180 l23 -31
-21 -11 c-19 -10 -23 -6 -42 37 -26 58 -35 148 -18 197 12 37 17 40 43 30z
m470 -81 c-13 -2 -35 -2 -50 0 -16 2 -5 4 22 4 28 0 40 -2 28 -4z m70 0 c-7
-2 -21 -2 -30 0 -10 3 -4 5 12 5 17 0 24 -2 18 -5z"/>
<path d="M10360 12487 c-81 -19 -138 -54 -172 -105 -54 -82 18 -141 172 -141
111 -1 198 26 278 86 110 83 -96 202 -278 160z"/>
<path d="M10695 11459 c-60 -28 -134 -49 -248 -67 -77 -13 -103 -21 -105 -33
-2 -9 23 -47 54 -85 66 -80 97 -141 123 -245 22 -86 39 -96 99 -56 86 56 180
333 155 457 -10 52 -22 56 -78 29z m42 -131 c-2 -13 -4 -5 -4 17 -1 22 1 32 4
23 2 -10 2 -28 0 -40z m-180 -10 c-3 -7 -5 -2 -5 12 0 14 2 19 5 13 2 -7 2
-19 0 -25z m90 -85 c-2 -21 -4 -4 -4 37 0 41 2 58 4 38 2 -21 2 -55 0 -75z
m-50 55 c-3 -7 -5 -2 -5 12 0 14 2 19 5 13 2 -7 2 -19 0 -25z m10 -50 c-3 -7
-5 -2 -5 12 0 14 2 19 5 13 2 -7 2 -19 0 -25z"/>
<path d="M10392 10475 c-7 -14 -12 -37 -12 -51 0 -24 1 -24 30 -9 30 16 30 16
14 48 -9 18 -17 33 -19 35 -1 1 -7 -9 -13 -23z"/>
<path d="M10420 10314 c-30 -8 -59 -19 -64 -24 -4 -4 -11 -29 -13 -54 l-5 -45
58 15 c93 23 134 37 134 45 0 18 -34 79 -44 78 -6 0 -36 -7 -66 -15z"/>
<path d="M10739 9800 c-1 -22 -3 -44 -4 -50 -1 -5 -3 -16 -4 -24 0 -7 -15 -19
-31 -26 -41 -17 -60 -46 -60 -92 0 -58 38 -82 95 -58 17 7 18 9 4 14 -19 8
-54 53 -63 84 -6 18 -1 25 29 39 24 12 38 14 43 7 4 -6 17 -16 29 -22 12 -7
24 -22 26 -34 3 -15 5 -9 6 14 0 20 -3 40 -9 43 -5 3 -10 1 -10 -4 0 -6 -4
-11 -10 -11 -5 0 -10 15 -11 33 0 17 -4 41 -8 52 -5 11 -5 32 0 48 6 20 4 27
-7 27 -10 0 -14 -13 -15 -40z"/>
<path d="M10730 9631 c0 -14 49 -43 61 -35 14 9 -19 44 -43 44 -10 0 -18 -4
-18 -9z"/>
<path d="M10220 9572 c6 -13 14 -21 18 -18 3 4 -2 14 -12 24 -18 16 -18 16 -6
-6z"/>
<path d="M10733 9363 c9 -2 25 -2 35 0 9 3 1 5 -18 5 -19 0 -27 -2 -17 -5z"/>
<path d="M10808 9353 c7 -3 16 -2 19 1 4 3 -2 6 -13 5 -11 0 -14 -3 -6 -6z"/>
<path d="M10860 9337 c0 -3 17 -17 37 -33 20 -15 33 -23 29 -16 -8 13 -66 56
-66 49z"/>
<path d="M10773 9276 c1 -11 9 -21 17 -23 10 -3 11 -2 4 4 -6 4 -14 15 -17 23
-5 11 -6 9 -4 -4z"/>
<path d="M10936 9257 c3 -10 9 -15 12 -12 3 3 0 11 -7 18 -10 9 -11 8 -5 -6z"/>
<path d="M10867 9180 c-4 -15 0 -20 15 -20 18 0 19 2 7 18 -7 9 -14 18 -15 20
-1 1 -4 -6 -7 -18z"/>
<path d="M10962 9175 c0 -16 2 -22 5 -12 2 9 2 23 0 30 -3 6 -5 -1 -5 -18z"/>
<path d="M10878 9123 c17 -2 47 -2 65 0 17 2 3 4 -33 4 -36 0 -50 -2 -32 -4z"/>
<path d="M10590 9010 c0 -11 7 -20 15 -20 13 0 14 4 5 20 -6 11 -13 20 -15 20
-3 0 -5 -9 -5 -20z"/>
<path d="M10818 8943 c12 -2 32 -2 45 0 12 2 2 4 -23 4 -25 0 -35 -2 -22 -4z"/>
<path d="M10808 8874 c-11 -11 11 -44 29 -44 15 0 15 1 1 13 -9 6 -17 18 -20
25 -2 7 -7 10 -10 6z"/>
<path d="M10630 8858 c0 -9 7 -19 16 -22 15 -6 15 -4 3 11 -7 10 -15 20 -16
22 -2 2 -3 -3 -3 -11z"/>
<path d="M11070 8796 c16 -32 30 -67 30 -79 0 -11 3 -17 6 -14 11 11 -17 92
-42 123 -22 26 -21 23 6 -30z"/>
<path d="M10822 8800 c20 -11 48 -35 61 -52 47 -64 43 -113 -16 -178 l-32 -35
34 30 c47 42 64 86 52 133 -12 42 -73 106 -111 116 -17 5 -14 0 12 -14z"/>
<path d="M10913 8806 c1 -11 9 -21 17 -23 10 -3 11 -2 4 4 -6 4 -14 15 -17 23
-5 11 -6 9 -4 -4z"/>
<path d="M10813 8684 c2 -36 7 -68 11 -71 10 -10 36 18 36 39 0 21 -37 98 -47
98 -3 0 -3 -30 0 -66z"/>
<path d="M11112 8642 c-1 -29 -8 -68 -16 -87 -21 -48 -102 -132 -161 -166 -27
-16 -45 -29 -39 -29 22 0 102 59 151 114 58 63 76 109 71 176 l-5 45 -1 -53z"/>
<path d="M10965 8660 c9 -31 11 -33 24 -29 5 2 0 15 -11 29 l-21 25 8 -25z"/>
<path d="M10920 8523 c0 -17 6 -23 23 -23 16 0 18 3 8 9 -7 5 -17 15 -22 22
-6 10 -9 8 -9 -8z"/>
<path d="M10663 8483 c9 -2 23 -2 30 0 6 3 -1 5 -18 5 -16 0 -22 -2 -12 -5z"/>
<path d="M10690 8401 c0 -6 4 -13 10 -16 6 -3 7 1 4 9 -7 18 -14 21 -14 7z"/>
<path d="M10344 9255 c-7 -18 2 -45 15 -45 7 0 7 9 1 24 -5 13 -6 27 -3 30 4
3 3 6 -1 6 -3 0 -9 -7 -12 -15z"/>
<path d="M10265 9157 c-9 -23 1 -47 19 -47 24 0 26 14 6 40 -17 22 -19 23 -25
7z"/>
<path d="M10393 9045 c0 -22 2 -30 4 -17 2 12 2 30 0 40 -3 9 -5 -1 -4 -23z"/>
<path d="M10260 9010 c0 -35 18 -52 42 -39 10 5 18 14 18 20 0 6 -5 7 -11 3
-7 -4 -20 4 -30 17 l-19 24 0 -25z"/>
<path d="M10210 9007 c-1 -76 122 -179 212 -176 19 1 25 3 13 6 -69 14 -69 14
-54 24 10 6 10 9 1 9 -7 0 -17 10 -22 23 -8 21 -9 21 -9 -6 -1 -27 -2 -27 -28
-13 -41 21 -83 69 -98 112 -8 22 -14 31 -15 21z"/>
<path d="M10298 8603 c12 -2 30 -2 40 0 9 3 -1 5 -23 4 -22 0 -30 -2 -17 -4z"/>
<path d="M10195 8590 c-13 -6 -5 -7 25 -3 25 3 47 7 49 9 9 8 -55 2 -74 -6z"/>
<path d="M10185 8540 c4 -14 14 -32 22 -40 12 -12 11 -7 -2 20 -22 45 -29 52
-20 20z"/>
<path d="M10250 8535 c-14 -17 -10 -47 7 -52 7 -3 9 3 6 17 -4 16 -2 19 12 14
15 -6 16 -4 6 14 -14 26 -15 26 -31 7z"/>
<path d="M10340 8454 c0 -13 18 -39 24 -34 2 3 -2 14 -10 24 -8 11 -14 16 -14
10z"/>
<path d="M10450 8411 c0 -6 4 -13 10 -16 6 -3 7 1 4 9 -7 18 -14 21 -14 7z"/>
<path d="M10390 8365 c14 -8 30 -14 35 -14 6 0 -1 6 -15 14 -14 8 -29 14 -35
14 -5 0 1 -6 15 -14z"/>
<path d="M8709 7456 c-3 -3 -41 -12 -85 -20 -257 -45 -437 -191 -450 -365 l-4
-56 14 42 c49 149 215 267 434 309 95 18 302 18 389 0 126 -27 218 -61 215
-79 -3 -17 41 -52 67 -52 17 0 101 -156 101 -187 0 -10 4 -18 9 -18 12 0 3 60
-15 113 -16 44 -73 134 -106 164 -38 35 -170 101 -249 123 -72 21 -307 40
-320 26z"/>
<path d="M8496 7294 c-9 -8 -16 -19 -16 -24 0 -13 30 -40 45 -40 15 0 45 27
45 40 0 13 -30 40 -45 40 -7 0 -21 -7 -29 -16z"/>
<path d="M9202 7203 c-17 -33 -2 -47 24 -22 13 12 24 26 24 31 0 15 -39 8 -48
-9z"/>
<path d="M8972 7097 c-49 -38 -52 -47 -12 -47 19 0 42 11 62 29 30 27 31 29
12 39 -16 9 -27 5 -62 -21z"/>
<path d="M8827 6983 c-20 -16 -36 -32 -36 -38 -1 -5 14 -28 33 -50 l33 -39 52
43 c28 24 51 46 51 49 0 9 -76 62 -87 62 -6 0 -26 -12 -46 -27z"/>
<path d="M8968 6846 l-57 -54 31 -6 c17 -3 48 -6 69 -6 l39 0 0 44 c0 46 -7
76 -19 76 -3 -1 -32 -25 -63 -54z"/>
<path d="M9092 6788 c-29 -29 -1 -71 39 -61 24 7 26 58 3 67 -22 8 -28 8 -42
-6z"/>
<path d="M8324 6298 l-19 -23 23 19 c21 18 27 26 19 26 -2 0 -12 -10 -23 -22z"/>
<path d="M15141 12111 c-125 -244 -485 -1045 -628 -1396 -36 -88 -73 -178 -83
-200 -16 -36 -98 -267 -103 -289 -3 -12 0 -13 318 -165 149 -71 428 -205 620
-299 326 -158 585 -276 697 -317 48 -18 48 -18 68 6 33 38 243 319 276 369 17
25 78 115 136 201 117 172 132 208 149 357 25 209 -64 693 -172 934 -100 222
-169 323 -269 390 -107 72 -424 224 -750 360 -81 34 -227 88 -237 88 -1 0 -11
-17 -22 -39z"/>
<path d="M11917 5555 c7 -119 30 -186 108 -329 78 -141 105 -217 108 -300 2
-90 -23 -162 -83 -230 -85 -97 -94 -129 -60 -196 26 -52 26 -119 -1 -173 -18
-34 -19 -39 -5 -28 48 40 59 117 26 181 -36 71 -29 92 74 200 79 83 96 121 96
214 0 78 -31 165 -140 397 -58 122 -99 224 -111 274 l-18 80 6 -90z"/>
<path d="M8000 4385 c-31 -64 -21 -133 26 -184 l34 -36 -25 55 c-26 58 -31
113 -15 169 14 50 5 49 -20 -4z"/>
<path d="M11380 4067 c-19 -26 -20 -29 -3 -14 22 19 33 14 33 -18 0 -51 -84
-83 -143 -54 -21 10 -21 9 2 -10 58 -51 151 -3 151 78 0 52 -12 58 -40 18z"/>
<path d="M11241 4074 c0 -11 3 -14 6 -6 3 7 2 16 -1 19 -3 4 -6 -2 -5 -13z"/>
<path d="M11680 3935 c-19 -14 -41 -25 -49 -25 -8 0 -12 -3 -8 -6 12 -12 66 8
81 32 20 30 18 30 -24 -1z"/>
<path d="M11510 3939 c0 -43 98 -115 123 -90 8 8 6 11 -6 11 -31 0 -77 30 -97
63 -12 19 -20 25 -20 16z"/>
<path d="M11715 3918 c-4 -13 -15 -32 -24 -43 -15 -19 -15 -19 3 -5 18 14 40
59 32 67 -2 3 -7 -6 -11 -19z"/>
<path d="M11785 3889 c-4 -6 -5 -12 -2 -15 2 -3 7 2 10 11 7 17 1 20 -8 4z"/>
<path d="M11831 3839 c0 -15 7 -33 17 -40 15 -12 16 -12 5 1 -6 8 -13 26 -16
40 l-4 25 -2 -26z"/>
<path d="M11963 3848 c-24 -31 -24 -36 2 -25 24 11 35 37 16 37 -5 0 -13 -6
-18 -12z"/>
<path d="M11394 3814 c-60 -32 -99 -66 -188 -163 -112 -123 -161 -207 -263
-456 -13 -33 -31 -75 -39 -93 -9 -19 -13 -37 -9 -40 3 -4 86 -32 183 -64 181
-58 191 -59 192 -15 0 30 110 357 140 417 58 114 162 229 278 305 23 15 41 29
40 30 -11 10 -252 105 -266 105 -11 0 -41 -12 -68 -26z"/>
<path d="M8680 3760 c-35 -39 -61 -72 -59 -73 2 -1 22 -12 44 -23 47 -25 82
-72 98 -131 6 -24 14 -43 18 -43 18 0 49 41 77 101 l30 67 -29 58 c-30 60 -79
114 -103 114 -8 0 -42 -32 -76 -70z"/>
<path d="M8541 3804 c0 -11 3 -14 6 -6 3 7 2 16 -1 19 -3 4 -6 -2 -5 -13z"/>
<path d="M11780 3802 c0 -6 12 -24 26 -41 28 -33 77 -52 118 -44 40 8 40 19 0
15 -44 -5 -88 13 -119 50 -14 16 -25 25 -25 20z"/>
<path d="M8376 3782 c-8 -24 1 -51 27 -79 27 -31 95 -32 128 -2 23 19 23 20 2
10 -57 -28 -133 -3 -133 43 0 15 2 15 30 1 41 -21 74 -19 96 8 19 22 19 22 -2
5 -28 -24 -48 -23 -99 7 -41 25 -44 25 -49 7z"/>
<path d="M9800 3690 c0 -5 9 -19 20 -30 22 -22 56 -26 80 -10 11 8 8 9 -12 4
-21 -4 -33 0 -53 20 -28 28 -35 31 -35 16z"/>
<path d="M9827 3545 c15 -58 8 -97 -21 -122 -31 -27 -91 -31 -122 -9 -26 19
-10 32 21 18 14 -7 34 -12 43 -12 9 1 1 7 -18 14 -19 7 -43 17 -52 21 -25 10
-24 -26 0 -48 44 -40 132 -22 159 33 17 34 16 92 -2 116 -14 18 -15 17 -8 -11z"/>
<path d="M8262 3535 c0 -16 2 -22 5 -12 2 9 2 23 0 30 -3 6 -5 -1 -5 -18z"/>
<path d="M8426 3478 l-55 -73 54 -47 c63 -56 95 -105 111 -167 13 -53 26 -61
42 -25 23 50 64 93 109 115 44 21 58 41 70 102 7 36 -12 36 -57 -1 l-34 -29
-22 46 c-29 58 -117 151 -143 151 -13 0 -39 -25 -75 -72z"/>
<path d="M8891 3515 c-1 -28 26 -65 48 -65 22 0 71 37 71 53 0 6 -7 2 -15 -10
-29 -42 -88 -30 -98 20 -4 20 -4 20 -6 2z"/>
<path d="M9789 3478 c4 -28 6 -29 9 -9 2 13 0 27 -5 32 -6 6 -7 -3 -4 -23z"/>
<path d="M8120 3490 c-4 -26 1 -44 18 -64 13 -14 27 -17 65 -13 48 4 79 24
100 62 6 12 -7 5 -31 -17 -65 -59 -132 -48 -145 22 -2 14 -5 18 -7 10z"/>
<path d="M9905 3420 c-21 -44 -37 -81 -34 -83 2 -2 27 -17 54 -32 162 -92 238
-193 321 -432 10 -29 21 -53 24 -53 3 0 16 19 29 42 13 23 43 63 67 88 l43 46
-20 53 c-59 156 -133 262 -241 343 -73 56 -165 108 -191 108 -7 0 -30 -36 -52
-80z"/>
<path d="M8774 3305 c-19 -46 -18 -119 2 -139 16 -17 69 -22 78 -7 3 4 -5 6
-18 4 -17 -4 -29 3 -45 22 -25 32 -27 72 -7 120 8 19 13 35 10 35 -3 0 -12
-16 -20 -35z"/>
<path d="M8781 3234 c0 -11 3 -14 6 -6 3 7 2 16 -1 19 -3 4 -6 -2 -5 -13z"/>
<path d="M9610 3230 c6 -11 13 -20 16 -20 2 0 0 9 -6 20 -6 11 -13 20 -16 20
-2 0 0 -9 6 -20z"/>
<path d="M8868 3204 c-16 -8 -28 -17 -28 -20 0 -2 8 0 19 5 10 6 21 8 23 5 3
-3 8 2 11 11 7 18 9 18 -25 -1z"/>
<path d="M9730 3151 l-51 -60 29 -15 c36 -19 118 -108 142 -155 30 -61 86
-221 120 -341 17 -63 33 -121 36 -129 5 -15 164 190 164 212 0 49 -143 332
-209 414 -45 56 -142 133 -167 133 -6 0 -35 -27 -64 -59z"/>
<path d="M9651 3184 c0 -11 3 -14 6 -6 3 7 2 16 -1 19 -3 4 -6 -2 -5 -13z"/>
<path d="M9481 3153 c-2 -63 81 -85 138 -37 17 14 31 30 31 34 0 5 -11 -2 -25
-15 -42 -43 -130 -27 -138 24 -4 23 -4 22 -6 -6z"/>
<path d="M9500 3166 c0 -3 9 -10 20 -16 11 -6 20 -8 20 -6 0 3 -9 10 -20 16
-11 6 -20 8 -20 6z"/>
<path d="M10685 2740 c-4 -17 -23 -43 -43 -60 l-37 -31 49 22 c44 19 62 21
140 16 110 -7 222 -26 421 -72 339 -77 673 -105 1043 -87 266 14 354 26 449
65 87 35 203 105 203 123 0 21 -27 29 -53 16 -102 -51 -338 -128 -436 -142
-116 -16 -194 -18 -483 -9 -357 11 -558 31 -743 74 -33 8 -156 37 -273 65
-117 27 -217 50 -222 50 -5 0 -11 -13 -15 -30z"/>
<path d="M6638 2490 c-92 -35 -148 -99 -148 -168 0 -73 116 -178 260 -234 117
-46 388 -86 695 -103 137 -8 141 -9 148 -44 9 -42 95 -81 301 -136 424 -113
746 -158 1116 -159 491 0 656 60 959 349 46 44 106 107 134 140 40 47 29 38
-48 -37 -169 -165 -272 -239 -440 -318 -158 -74 -216 -91 -355 -102 -133 -10
-192 -8 -419 17 -362 39 -628 120 -788 239 -53 39 -63 51 -63 76 0 33 -12 37
-67 21 -17 -5 -89 -15 -160 -21 -238 -22 -507 10 -727 87 -158 55 -249 108
-306 179 -33 42 -35 49 -40 138 l-5 94 -47 -18z"/>
<path d="M10164 2218 l-19 -23 23 19 c21 18 27 26 19 26 -2 0 -12 -10 -23 -22z"/>
</g>
</svg>
